<svg width="101" height="16" viewBox="0 0 101 16" fill="none" xmlns="http://www.w3.org/2000/svg">
<path d="M0.36 15V0.879999H3.5V15H0.36ZM9.1 15V0.879999H12.26V15H9.1ZM2.24 9.1V6.38H10.14V9.1H2.24ZM18.7494 15.2C17.856 15.2 17.056 14.98 16.3494 14.54C15.656 14.1 15.1027 13.5 14.6894 12.74C14.2894 11.98 14.0894 11.1133 14.0894 10.14C14.0894 9.16667 14.2894 8.3 14.6894 7.54C15.1027 6.78 15.656 6.18 16.3494 5.74C17.056 5.3 17.856 5.08 18.7494 5.08C19.4027 5.08 19.9894 5.20667 20.5094 5.46C21.0427 5.71333 21.476 6.06667 21.8094 6.52C22.1427 6.96 22.3294 7.46667 22.3694 8.04V12.24C22.3294 12.8133 22.1427 13.3267 21.8094 13.78C21.4894 14.22 21.0627 14.5667 20.5294 14.82C19.996 15.0733 19.4027 15.2 18.7494 15.2ZM19.3694 12.44C20.0227 12.44 20.5494 12.2267 20.9494 11.8C21.3494 11.36 21.5494 10.8067 21.5494 10.14C21.5494 9.68667 21.456 9.28667 21.2694 8.94C21.096 8.59333 20.8427 8.32667 20.5094 8.14C20.1894 7.94 19.816 7.84 19.3894 7.84C18.9627 7.84 18.5827 7.94 18.2494 8.14C17.9294 8.32667 17.6694 8.59333 17.4694 8.94C17.2827 9.28667 17.1894 9.68667 17.1894 10.14C17.1894 10.58 17.2827 10.9733 17.4694 11.32C17.656 11.6667 17.916 11.94 18.2494 12.14C18.5827 12.34 18.956 12.44 19.3694 12.44ZM21.4294 15V12.38L21.8894 10.02L21.4294 7.66V5.28H24.4294V15H21.4294ZM26.5839 15V5.28H29.6439V15H26.5839ZM29.6439 9.66L28.3639 8.66C28.6172 7.52667 29.0439 6.64667 29.6439 6.02C30.2439 5.39333 31.0772 5.08 32.1439 5.08C32.6106 5.08 33.0172 5.15333 33.3639 5.3C33.7239 5.43333 34.0372 5.64667 34.3039 5.94L32.4839 8.24C32.3506 8.09333 32.1839 7.98 31.9839 7.9C31.7839 7.82 31.5572 7.78 31.3039 7.78C30.7972 7.78 30.3906 7.94 30.0839 8.26C29.7906 8.56667 29.6439 9.03333 29.6439 9.66ZM35.1191 15V5.28H38.1791V15H35.1191ZM36.6591 3.94C36.1791 3.94 35.7791 3.78 35.4591 3.46C35.1524 3.12667 34.9991 2.72667 34.9991 2.26C34.9991 1.78 35.1524 1.38 35.4591 1.06C35.7791 0.74 36.1791 0.58 36.6591 0.58C37.1391 0.58 37.5324 0.74 37.8391 1.06C38.1457 1.38 38.2991 1.78 38.2991 2.26C38.2991 2.72667 38.1457 3.12667 37.8391 3.46C37.5324 3.78 37.1391 3.94 36.6591 3.94ZM43.8739 15.24C43.3006 15.24 42.7339 15.1667 42.1739 15.02C41.6272 14.8733 41.1139 14.6667 40.6339 14.4C40.1672 14.12 39.7672 13.8 39.4339 13.44L41.1739 11.68C41.4939 12.0267 41.8739 12.3 42.3139 12.5C42.7539 12.6867 43.2339 12.78 43.7539 12.78C44.1139 12.78 44.3872 12.7267 44.5739 12.62C44.7739 12.5133 44.8739 12.3667 44.8739 12.18C44.8739 11.94 44.7539 11.76 44.5139 11.64C44.2872 11.5067 43.9939 11.3933 43.6339 11.3C43.2739 11.1933 42.8939 11.08 42.4939 10.96C42.0939 10.84 41.7139 10.6733 41.3539 10.46C40.9939 10.2467 40.7006 9.95333 40.4739 9.58C40.2472 9.19333 40.1339 8.70667 40.1339 8.12C40.1339 7.49333 40.2939 6.95333 40.6139 6.5C40.9339 6.03333 41.3872 5.66667 41.9739 5.4C42.5606 5.13333 43.2472 5 44.0339 5C44.8606 5 45.6206 5.14667 46.3139 5.44C47.0206 5.72 47.5939 6.14 48.0339 6.7L46.2939 8.46C45.9872 8.1 45.6406 7.84667 45.2539 7.7C44.8806 7.55333 44.5139 7.48 44.1539 7.48C43.8072 7.48 43.5472 7.53333 43.3739 7.64C43.2006 7.73333 43.1139 7.87333 43.1139 8.06C43.1139 8.26 43.2272 8.42 43.4539 8.54C43.6806 8.66 43.9739 8.76667 44.3339 8.86C44.6939 8.95333 45.0739 9.06667 45.4739 9.2C45.8739 9.33333 46.2539 9.51333 46.6139 9.74C46.9739 9.96667 47.2672 10.2733 47.4939 10.66C47.7206 11.0333 47.8339 11.5267 47.8339 12.14C47.8339 13.0867 47.4739 13.84 46.7539 14.4C46.0472 14.96 45.0872 15.24 43.8739 15.24ZM53.5827 15V0.879999H56.7227V15H53.5827ZM55.9827 9.46V6.76H63.0427V9.46H55.9827ZM55.9827 3.58V0.879999H63.3627V3.58H55.9827ZM65.0995 15V5.28H68.1595V15H65.0995ZM66.6395 3.94C66.1595 3.94 65.7595 3.78 65.4395 3.46C65.1329 3.12667 64.9795 2.72667 64.9795 2.26C64.9795 1.78 65.1329 1.38 65.4395 1.06C65.7595 0.74 66.1595 0.58 66.6395 0.58C67.1195 0.58 67.5129 0.74 67.8195 1.06C68.1262 1.38 68.2795 1.78 68.2795 2.26C68.2795 2.72667 68.1262 3.12667 67.8195 3.46C67.5129 3.78 67.1195 3.94 66.6395 3.94ZM70.3144 15V0.48H73.3744V15H70.3144ZM75.5292 15V5.28H78.5892V15H75.5292ZM81.7492 15V9.32C81.7492 8.82667 81.5959 8.44667 81.2892 8.18C80.9959 7.9 80.6292 7.76 80.1892 7.76C79.8826 7.76 79.6092 7.82667 79.3692 7.96C79.1292 8.08 78.9359 8.25333 78.7892 8.48C78.6559 8.70667 78.5892 8.98667 78.5892 9.32L77.4092 8.8C77.4092 8.02667 77.5759 7.36667 77.9092 6.82C78.2426 6.26 78.6959 5.83333 79.2692 5.54C79.8426 5.23333 80.4892 5.08 81.2092 5.08C81.8892 5.08 82.4959 5.23333 83.0292 5.54C83.5759 5.84667 84.0092 6.27333 84.3292 6.82C84.6492 7.36667 84.8092 8.02 84.8092 8.78V15H81.7492ZM87.9692 15V9.32C87.9692 8.82667 87.8159 8.44667 87.5092 8.18C87.2159 7.9 86.8492 7.76 86.4092 7.76C86.1026 7.76 85.8292 7.82667 85.5892 7.96C85.3492 8.08 85.1559 8.25333 85.0092 8.48C84.8759 8.70667 84.8092 8.98667 84.8092 9.32L83.0492 9.08C83.0759 8.25333 83.2692 7.54667 83.6292 6.96C84.0026 6.36 84.4892 5.9 85.0892 5.58C85.7026 5.24667 86.3892 5.08 87.1492 5.08C87.8959 5.08 88.5559 5.24 89.1292 5.56C89.7159 5.86667 90.1759 6.31333 90.5092 6.9C90.8559 7.47333 91.0292 8.16667 91.0292 8.98V15H87.9692ZM96.5302 15.24C95.9568 15.24 95.3902 15.1667 94.8302 15.02C94.2835 14.8733 93.7702 14.6667 93.2902 14.4C92.8235 14.12 92.4235 13.8 92.0902 13.44L93.8302 11.68C94.1502 12.0267 94.5302 12.3 94.9702 12.5C95.4102 12.6867 95.8902 12.78 96.4102 12.78C96.7702 12.78 97.0435 12.7267 97.2302 12.62C97.4302 12.5133 97.5302 12.3667 97.5302 12.18C97.5302 11.94 97.4102 11.76 97.1702 11.64C96.9435 11.5067 96.6502 11.3933 96.2902 11.3C95.9302 11.1933 95.5502 11.08 95.1502 10.96C94.7502 10.84 94.3702 10.6733 94.0102 10.46C93.6502 10.2467 93.3568 9.95333 93.1302 9.58C92.9035 9.19333 92.7902 8.70667 92.7902 8.12C92.7902 7.49333 92.9502 6.95333 93.2702 6.5C93.5902 6.03333 94.0435 5.66667 94.6302 5.4C95.2168 5.13333 95.9035 5 96.6902 5C97.5168 5 98.2768 5.14667 98.9702 5.44C99.6768 5.72 100.25 6.14 100.69 6.7L98.9502 8.46C98.6435 8.1 98.2968 7.84667 97.9102 7.7C97.5368 7.55333 97.1702 7.48 96.8102 7.48C96.4635 7.48 96.2035 7.53333 96.0302 7.64C95.8568 7.73333 95.7702 7.87333 95.7702 8.06C95.7702 8.26 95.8835 8.42 96.1102 8.54C96.3368 8.66 96.6302 8.76667 96.9902 8.86C97.3502 8.95333 97.7302 9.06667 98.1302 9.2C98.5302 9.33333 98.9102 9.51333 99.2702 9.74C99.6302 9.96667 99.9235 10.2733 100.15 10.66C100.377 11.0333 100.49 11.5267 100.49 12.14C100.49 13.0867 100.13 13.84 99.4102 14.4C98.7035 14.96 97.7435 15.24 96.5302 15.24Z" fill="white"/>
</svg>
